<svg width="664" height="664" viewBox="0 0 664 664" fill="none" xmlns="http://www.w3.org/2000/svg">
<g clip-path="url(#clip0)">
<rect width="664" height="664" rx="332" fill="white"/>
<path d="M-14.6123 1061.14H734.76V-63.0955H-14.6123V1061.14Z" fill="url(#paint0_linear)"/>
<path d="M100.489 554.451C100.489 638.934 168.965 707.42 253.434 707.42C337.907 707.42 406.383 638.934 406.383 554.451C406.383 469.969 337.907 401.479 253.434 401.479C168.965 401.479 100.489 469.969 100.489 554.451Z" fill="url(#paint1_linear)"/>
<g opacity="0.5">
<g opacity="0.5">
<path opacity="0.5" d="M136.102 554.438C136.102 475.981 195.168 411.358 271.245 402.529C265.399 401.855 259.467 401.466 253.439 401.466C168.97 401.466 100.494 469.952 100.494 554.438C100.494 638.921 168.97 707.411 253.439 707.411C259.467 707.411 265.399 707.018 271.245 706.344C195.168 697.515 136.102 632.892 136.102 554.438Z" fill="#B41DA7"/>
</g>
</g>
<g opacity="0.199997">
<g opacity="0.199997">
<path opacity="0.199997" d="M386.994 576.507C374.314 584.062 351.472 585.389 334.79 586.36C331.897 586.527 329.155 586.688 326.629 586.866C325.955 586.913 324.971 586.97 323.737 587.034C300.352 588.308 268.636 591.44 263.122 603.872C261.339 607.907 262.441 612.427 266.404 617.31C269.703 621.356 274.703 622.936 280.639 622.936C293.39 622.936 310.443 615.63 324.058 609.797C330.068 607.218 335.257 604.996 338.546 604.107C347.27 601.757 356.473 599.823 365.376 597.957C377.788 595.35 390.379 592.699 402.456 588.796C402.77 587.434 403.098 586.078 403.376 584.697C390.836 588.928 377.642 591.721 364.641 594.447C355.692 596.327 346.436 598.271 337.619 600.651C334.08 601.603 328.784 603.876 322.649 606.501C304.815 614.142 277.871 625.697 269.182 615.052C266.093 611.246 265.187 608.067 266.404 605.32C269.892 597.451 289.245 592.499 323.933 590.612C325.192 590.548 326.194 590.491 326.882 590.441C329.394 590.262 332.119 590.105 334.997 589.938C352.995 588.893 375.398 587.59 388.827 579.582C392.897 577.159 396.692 574.263 400.363 571.47C402.135 570.118 403.954 568.758 405.795 567.435C405.927 565.894 406.066 564.36 406.148 562.804C403.412 564.663 400.755 566.661 398.19 568.619C394.599 571.355 390.889 574.184 386.994 576.507ZM136.514 504.885C127.476 504.414 118.484 503.522 109.574 502.395C109.16 503.54 108.786 504.703 108.401 505.858C117.624 507.043 126.944 507.977 136.325 508.466C217.078 512.661 298.601 489.042 377.656 465.208C376.918 464.181 376.187 463.15 375.42 462.14C297.035 485.767 216.226 509.073 136.514 504.885ZM197.978 614.046C198.559 614.717 198.766 615.43 198.627 616.29C198.448 617.457 197.482 618.623 195.752 619.75C190.077 623.471 182.772 623.942 175.706 624.395C174.462 624.474 173.217 624.556 171.986 624.652C155.704 625.929 139.91 630.756 125.7 638.508C126.359 639.506 127.034 640.498 127.718 641.486C141.408 634.073 156.606 629.45 172.264 628.223C173.481 628.13 174.704 628.048 175.938 627.97C183.464 627.488 191.254 626.985 197.721 622.75C200.325 621.035 201.823 619.051 202.169 616.85C202.472 614.942 201.958 613.165 200.681 611.699C198.053 608.663 192.717 607.632 189.218 607.703C163.975 608.067 139.542 613.654 115.72 621.01C116.248 622.098 116.822 623.164 117.378 624.245C140.748 617.064 164.674 611.642 189.264 611.285C192.349 611.235 196.355 612.17 197.978 614.046ZM296.557 537.769C273.691 538.956 250.1 538.304 227.29 537.672C185.308 536.513 141.929 535.35 100.768 545.513C100.696 546.748 100.664 547.993 100.621 549.234C141.611 538.921 185.112 540.091 227.193 541.254C250.067 541.892 273.719 542.542 296.743 541.347C323.351 539.966 357.204 535.125 401.265 515.091C400.969 513.978 400.644 512.875 400.323 511.773C365.358 527.716 332.004 535.924 296.557 537.769ZM192.874 594.055C232.822 590.937 266.464 579.111 302.075 566.596C314.47 562.241 327.286 557.735 340.493 553.576C361.548 546.951 383.627 543.077 405.698 540.109C405.588 538.914 405.452 537.729 405.317 536.541C383.053 539.538 360.757 543.441 339.416 550.158C326.151 554.332 313.307 558.848 300.891 563.215C265.505 575.654 232.076 587.401 192.592 590.48C182.198 591.293 171.494 591.889 161.147 592.464C143.038 593.47 124.669 594.504 106.467 596.727C106.803 597.889 107.117 599.063 107.477 600.215C125.393 598.054 143.495 597.037 161.343 596.042C171.715 595.464 182.433 594.864 192.874 594.055ZM139.407 452.491C138.337 453.693 137.281 454.909 136.247 456.144C158.839 455.84 181.449 454.049 203.984 450.76C221.861 448.156 240.694 444.453 257.369 435.114C265.637 430.483 273.152 424.544 280.425 418.804C285.343 414.919 290.412 410.952 295.676 407.388C294.182 406.96 292.691 406.521 291.175 406.136C286.709 409.297 282.401 412.679 278.203 415.993C271.044 421.647 263.639 427.494 255.617 431.989C239.453 441.039 221.001 444.66 203.467 447.214C182.155 450.329 160.779 452.07 139.407 452.491ZM336.588 664.678L330.364 664.796C280.435 665.716 228.881 666.743 186.667 692.057C187.969 692.685 189.296 693.27 190.616 693.866C231.638 670.254 281.812 669.276 330.431 668.377L336.659 668.263C343.194 668.135 349.742 667.935 356.28 667.635C357.636 666.401 358.948 665.12 360.261 663.836C352.382 664.257 344.478 664.524 336.588 664.678ZM130.048 476.132C182.202 480.894 224.843 475.293 260.433 459.001C270.855 454.231 280.91 448.417 290.636 442.794C300.802 436.919 311.31 430.84 322.16 426.006C325.003 424.744 327.91 423.598 330.82 422.471C329.518 421.704 328.216 420.937 326.886 420.209C324.821 421.041 322.738 421.829 320.708 422.735C309.68 427.644 299.086 433.765 288.846 439.687C279.187 445.27 269.207 451.042 258.942 455.744C223.941 471.769 181.87 477.277 130.379 472.564C128.453 472.386 126.541 472.175 124.626 471.976C123.906 473.103 123.167 474.216 122.475 475.361C124.993 475.636 127.515 475.9 130.048 476.132ZM270.152 644.651C241.999 646.07 212.891 647.537 185.925 656.501C174.897 660.169 164.343 665.088 154.102 670.671C153.136 669.843 152.165 669.026 151.22 668.174C161.985 662.238 173.106 656.987 184.798 653.102C212.224 643.98 241.578 642.499 269.97 641.073C283.931 640.366 298.366 639.638 312.38 638.012C346.161 634.088 371.286 622.99 396.732 607.949C396.054 609.762 395.348 611.563 394.606 613.343C370.13 627.427 345.498 637.769 312.79 641.568C298.665 643.209 284.166 643.941 270.152 644.651Z" fill="#B41DA7"/>
</g>
</g>
<g opacity="0.0500031">
<g opacity="0.0500031">
<path opacity="0.0500031" d="M611.412 282.526C567.408 300.755 516.781 279.782 498.554 235.772C480.328 191.761 501.297 141.126 545.301 122.893C589.305 104.667 639.932 125.64 658.159 169.65C676.385 213.661 655.416 264.296 611.412 282.526Z" fill="white"/>
</g>
</g>
<path d="M548.137 129.767C507.839 146.458 488.703 192.663 505.396 232.971C522.085 273.275 568.286 292.414 608.58 275.722C648.882 259.027 668.018 212.819 651.325 172.515C638.727 142.096 609.322 123.731 578.33 123.731C568.257 123.731 558.021 125.671 548.137 129.767Z" fill="url(#paint2_linear)"/>
<g opacity="0.5">
<g opacity="0.5">
<g opacity="0.5">
<g opacity="0.5">
<g opacity="0.5">
<path opacity="0.5" d="M522.377 225.951C506.879 188.522 522.287 146.02 556.836 126.774C553.914 127.605 551.007 128.593 548.133 129.781C507.835 146.48 488.699 192.685 505.391 232.989C522.081 273.293 568.282 292.432 608.579 275.737C611.454 274.549 614.208 273.19 616.862 271.709C578.825 282.536 537.878 263.379 522.377 225.951Z" fill="url(#paint3_linear)"/>
</g>
</g>
</g>
</g>
</g>
<g opacity="0.5">
<g opacity="0.5">
<g opacity="0.5">
<g opacity="0.5">
<g opacity="0.5">
<path opacity="0.5" d="M564.767 265.037C571.527 262.04 574.455 253.464 581.218 250.468C584.042 249.216 587.217 249.098 590.249 248.502C615.791 243.501 627.254 206.721 653.257 205.573C654.566 205.512 655.921 205.54 657.283 205.569C657.444 201.049 657.237 196.494 656.606 191.934C655.425 193.001 654.287 194.15 653.05 195.134C645.128 201.409 633.325 200.321 624.997 206.043C619.511 209.811 616.297 215.989 612.106 221.155C601.32 234.44 584.652 240.294 568.498 243.957C559.645 245.966 532.163 247.025 518.666 254.47C523.802 260.399 529.738 265.458 536.244 269.553C538.533 267.217 540.884 265.69 546.12 265.347C552.408 264.937 558.632 267.759 564.767 265.037Z" fill="url(#paint4_linear)"/>
</g>
</g>
</g>
</g>
</g>
<g opacity="0.5">
<g opacity="0.5">
<g opacity="0.5">
<g opacity="0.5">
<g opacity="0.5">
<path opacity="0.5" d="M656.596 213.59C646.759 216.587 635.876 222.323 633.23 225.123C631.033 227.446 629.181 230.089 626.881 232.308C623.557 235.519 619.273 237.891 616.972 241.901C615.924 243.724 615.339 245.821 614.04 247.477C608.751 254.24 596.381 249.414 590.296 255.475C589.551 256.217 588.919 257.166 588.898 258.221C588.844 260.954 592.447 262.021 595.175 261.896C600.907 261.628 606.454 259.877 611.925 258.139C617.004 256.527 622.08 254.915 627.159 253.302C633.437 251.308 640.199 248.964 643.841 243.474C647.183 238.437 648.81 235.201 651.535 232.472C653.989 226.429 655.69 220.086 656.596 213.59Z" fill="url(#paint5_linear)"/>
</g>
</g>
</g>
</g>
</g>
<g opacity="0.5">
<g opacity="0.5">
<g opacity="0.5">
<g opacity="0.5">
<g opacity="0.5">
<path opacity="0.5" d="M630.432 164.71C629.17 168.345 628.563 172.765 625.225 174.677C620.766 177.228 615.384 173.258 610.248 173.218C598.581 173.133 595.998 191.052 585.548 196.239C577.116 200.416 564.71 195.646 558.943 203.077C556.931 205.667 556.246 209.341 553.525 211.168C550.068 213.487 545.492 211.578 541.626 210.044C528.307 204.761 513.073 205.107 499.719 210.215C500.45 217.843 502.302 225.494 505.39 232.947C506.343 235.251 507.406 237.477 508.547 239.643C511.165 237.891 513.43 235.722 514.875 232.943C516.173 230.435 516.772 227.517 518.634 225.387C523.656 219.648 533.04 223.532 539.215 228.002C545.396 232.472 553.896 237.324 559.931 232.665C565.013 228.737 564.5 220.404 569.265 216.094C577.608 208.553 592.967 219.73 601.588 212.509C607.879 207.244 605.611 195.796 612.113 190.795C617.125 186.942 624.747 189.036 630.19 185.822C638.137 181.131 637.826 167.557 646.419 164.189C646.658 164.096 646.908 164.039 647.157 163.965C645.024 160.169 642.617 156.612 639.963 153.298C635.601 155.87 632.095 159.919 630.432 164.71Z" fill="url(#paint6_linear)"/>
</g>
</g>
</g>
</g>
</g>
<g opacity="0.5">
<g opacity="0.5">
<g opacity="0.5">
<g opacity="0.5">
<g opacity="0.5">
<path opacity="0.5" d="M499.661 196.109C505.386 191.036 510.793 185.664 515.673 183.573C521.586 181.037 529.494 181.611 533.193 186.877C534.609 188.892 535.29 191.4 536.959 193.212C540.312 196.854 546.533 196.223 550.495 193.255C554.451 190.287 556.737 185.656 559.027 181.269C559.99 179.424 561.085 177.487 562.933 176.535C566.257 174.819 570.459 176.995 573.99 175.768C577.507 174.544 579.101 170.402 579.29 166.682C579.479 162.964 578.73 159.176 579.544 155.541C581.042 148.852 587.615 144.303 594.324 142.891C601.03 141.482 607.975 142.545 614.791 143.258C620.341 143.836 625.909 144.164 631.484 144.271C621.222 134.95 608.699 128.539 595.284 125.578C592.926 130.933 590.565 136.074 585.24 137.697C581.559 138.82 577.147 137.829 574.111 140.194C570.784 142.787 570.898 148.071 567.941 151.074C561.239 157.884 549.151 146.476 540.551 150.643C536.981 152.369 535.023 156.436 531.499 158.255C526.451 160.863 519.76 158.487 513.871 157.132C505.785 168.594 500.852 182.064 499.661 196.109Z" fill="url(#paint7_linear)"/>
</g>
</g>
</g>
</g>
</g>
<g opacity="0.0500031">
<g opacity="0.0500031">
<path opacity="0.0500031" d="M273.117 233.781C218.242 258 153.9 233.046 129.685 178.165C105.473 123.281 130.42 58.9295 185.295 34.7106C240.171 10.4953 304.512 35.4419 328.724 90.3295C352.939 145.21 327.993 209.565 273.117 233.781Z" fill="white"/>
</g>
</g>
<path d="M186.473 75.5903C136.22 97.7651 113.457 156.488 135.628 206.752C157.799 257.013 216.516 279.78 266.773 257.601C317.022 235.426 339.786 176.704 317.614 126.44C301.2 89.2355 264.772 67.0964 226.568 67.0999C213.16 67.0999 199.531 69.8254 186.473 75.5903Z" fill="url(#paint8_linear)"/>
<path d="M203.713 69.8073C194.247 79.4035 185.173 89.4135 174.736 97.9289C164.182 106.544 152.265 113.425 139.603 118.452C137.409 122.422 135.48 126.528 133.846 130.756C145.838 124.766 157.437 117.988 168.501 110.429C180.985 101.896 192.791 92.4208 204.583 82.9601C211.153 77.684 217.727 72.4115 224.301 67.1353C217.449 67.2923 210.554 68.1806 203.713 69.8073ZM213.468 95.1963C201.869 102.663 189.703 109.28 176.94 114.56C169.985 117.432 161.742 121.245 160.779 128.712C165.512 130.296 170.413 127.21 174.472 124.302C187.698 114.828 201.127 105.634 214.745 96.7302C224.557 90.3197 234.641 83.9769 245.905 80.7377C251.07 79.2501 256.423 78.4367 261.495 76.6638C262.747 76.2285 264.074 75.6613 265.423 75.0263C259.498 72.5184 253.342 70.5886 247.032 69.2579C236.278 78.3761 225.496 87.448 213.468 95.1963ZM257.593 92.2959C249.158 94.5898 240.351 95.3425 231.955 97.7791C210.461 104.018 193.797 120.492 175.731 133.702C160.872 144.562 144.557 153.416 127.39 160.044C126.802 168.802 127.369 177.702 129.188 186.539C154.07 174.542 170.406 148.849 195.01 135.996C207.758 129.336 222.111 126.471 235.475 121.156C252.111 114.538 267.003 104.218 283.189 96.5662C286.349 95.075 289.581 93.7015 292.841 92.378C288.735 88.725 284.373 85.4145 279.775 82.5071C272.838 86.7238 265.508 90.1448 257.593 92.2959ZM270.751 135.34C254.897 147.412 243.59 165.548 225.61 174.139C212.523 180.392 197.503 180.781 183.432 184.277C166.065 188.59 150.667 197.444 136.336 208.243C140.288 216.812 145.296 224.567 151.163 231.406C178.556 219.269 208.567 213.009 237.708 205.31C269.132 197.006 300.855 186.393 326.083 165.912C326.001 152.702 323.287 139.296 317.616 126.436C316.036 122.854 314.249 119.426 312.312 116.13C297.445 120.671 283.021 125.997 270.751 135.34ZM265.258 119.886C262.016 121.267 258.849 123.653 256.167 125.915C250.139 131.009 244.895 137.17 237.608 140.545C227.343 145.3 215.223 143.317 204.291 146.242C186.885 150.897 175.385 166.818 161.995 178.88C153.2 186.803 143.098 193.235 132.27 198.011C133.029 200.295 133.896 202.56 134.834 204.818C136.247 203.766 137.641 202.706 139.004 201.625C154.466 189.393 169.229 175.113 188.072 169.308C201.634 165.127 216.768 165.559 229.023 158.403C241.197 151.293 248.605 137.719 260.943 130.895C263.35 129.564 274.429 123.899 273.869 120.546C273.651 119.255 272.239 118.823 270.573 118.823C268.665 118.823 266.421 119.39 265.258 119.886ZM263.546 222.666C244.714 235.019 227.935 251.964 206.067 257.351C201.216 258.543 196.219 259.124 191.186 259.524C201.698 263.533 212.883 265.763 224.261 266.041C253.409 242.875 281.919 218.585 316.589 208.935C318.96 203.891 320.929 198.661 322.427 193.292C302.632 202.77 281.894 210.636 263.546 222.666ZM244.154 214.639C237.077 215.848 229.975 217.286 222.906 218.948C210.026 221.977 197.261 225.744 184.966 230.218C178.043 232.733 167.381 235.555 159.185 239.714C163.476 243.67 168.084 247.216 172.949 250.327C177.761 246.645 182.273 242.918 185.611 241.148C194.725 236.593 204.53 233.771 214.442 231.623C225.959 229.13 240.936 227.985 249.621 219.013C252.864 215.659 249.033 214.503 245.912 214.503C245.274 214.503 244.667 214.55 244.154 214.639Z" fill="url(#paint9_linear)"/>
<g opacity="0.5">
<g opacity="0.5">
<g opacity="0.5">
<g opacity="0.5">
<g opacity="0.5">
<path opacity="0.5" d="M156.792 197.378C136.201 150.703 154.381 96.7499 197.322 71.525C193.669 72.6559 190.038 73.9829 186.454 75.5668C136.197 97.7416 113.434 156.464 135.609 206.728C157.784 256.989 216.497 279.756 266.75 257.578C270.335 255.997 273.766 254.207 277.062 252.27C229.487 266.992 177.387 244.054 156.792 197.378Z" fill="url(#paint10_linear)"/>
</g>
</g>
</g>
</g>
</g>
<path d="M306.291 107.019C308.617 110.148 310.782 113.444 312.786 116.89C330.078 112.441 341.217 111.603 342.855 115.313C344.492 119.02 336.338 126.693 321.4 136.471C301.665 149.41 270.049 166.059 233.489 182.194C196.954 198.319 163.344 210.451 140.484 216.309C123.192 220.754 112.031 221.607 110.398 217.9C108.761 214.186 116.889 206.527 131.827 196.746C130.632 192.943 129.662 189.122 128.917 185.298C78.3464 212.506 46.5411 235.655 50.3897 244.377C54.2347 253.096 92.7671 245.187 146.947 226.169C173.901 216.716 204.708 204.522 237.048 190.257C269.382 175.983 299.179 161.432 324.325 147.89C374.892 120.682 406.708 97.5512 402.859 88.8326C401.803 86.4317 398.122 85.2901 392.212 85.2901C376.636 85.2901 345.576 93.2275 306.291 107.019Z" fill="url(#paint11_linear)"/>
<path d="M718.628 255.911C691.334 367.88 666.362 513.91 524.313 526.683C467.811 531.758 415.034 520.95 364.432 510.134C261.725 488.189 167.977 466.244 70.2351 577.205C8.41803 647.379 -15.7875 743.544 -68.156 819.83C-174.346 974.507 -268.408 880.649 -372.561 810.986V1336.69C-202.86 1349.49 -159.29 1246.28 -87.8417 1137.38C-0.957489 1004.97 23.8613 769.111 301.06 822.905C578.178 876.684 603.063 760.888 744.586 172.446C733.94 198.846 725.711 226.846 718.628 255.911Z" fill="url(#paint12_linear)"/>
<path d="M58.0696 387.214L61.6971 393.846C62.9526 396.143 64.843 398.034 67.14 399.293L73.7707 402.917C74.0275 403.057 74.0275 403.424 73.7707 403.563L67.14 407.191C64.843 408.447 62.9526 410.337 61.6971 412.635L58.0696 419.267C57.9305 419.523 57.5631 419.523 57.424 419.267L53.8001 412.635C52.541 410.337 50.6506 408.447 48.3536 407.191L41.7229 403.563C41.4696 403.424 41.4696 403.057 41.7229 402.917L48.3536 399.293C50.6506 398.034 52.541 396.143 53.8001 393.846L57.424 387.214C57.5631 386.961 57.9305 386.961 58.0696 387.214Z" fill="#EFEFEF"/>
<path d="M439.226 242.419L442.853 249.047C444.109 251.348 445.999 253.238 448.296 254.494L454.927 258.122C455.184 258.261 455.184 258.625 454.927 258.768L448.296 262.392C445.999 263.652 444.109 265.539 442.853 267.84L439.226 274.471C439.086 274.725 438.719 274.725 438.58 274.471L434.956 267.84C433.701 265.539 431.807 263.652 429.51 262.392L422.879 258.768C422.626 258.625 422.626 258.261 422.879 258.122L429.51 254.494C431.807 253.238 433.701 251.348 434.956 249.047L438.58 242.419C438.719 242.162 439.086 242.162 439.226 242.419Z" fill="#EFEFEF"/>
<path d="M198.512 314.976L200.288 318.226C200.906 319.354 201.833 320.277 202.96 320.895L206.206 322.671C206.331 322.739 206.331 322.921 206.206 322.989L202.96 324.765C201.833 325.382 200.906 326.306 200.288 327.434L198.512 330.683C198.444 330.808 198.266 330.808 198.198 330.683L196.418 327.434C195.801 326.306 194.878 325.382 193.75 324.765L190.501 322.989C190.376 322.921 190.376 322.739 190.501 322.671L193.75 320.895C194.878 320.277 195.801 319.354 196.418 318.226L198.198 314.976C198.266 314.852 198.444 314.852 198.512 314.976Z" fill="#EFEFEF"/>
<path d="M342.874 333.001L344.651 336.251C345.268 337.378 346.191 338.306 347.319 338.919L350.568 340.7C350.693 340.767 350.693 340.946 350.568 341.013L347.319 342.79C346.191 343.407 345.268 344.335 344.651 345.462L342.874 348.708C342.803 348.833 342.625 348.833 342.557 348.708L340.781 345.462C340.163 344.335 339.236 343.407 338.113 342.79L334.863 341.013C334.738 340.946 334.738 340.767 334.863 340.7L338.113 338.919C339.236 338.306 340.163 337.378 340.781 336.251L342.557 333.001C342.625 332.876 342.803 332.876 342.874 333.001Z" fill="#EFEFEF"/>
<path d="M455.123 511.386C455.123 513.395 453.493 515.025 451.485 515.025C449.477 515.025 447.85 513.395 447.85 511.386C447.85 509.382 449.477 507.748 451.485 507.748C453.493 507.748 455.123 509.382 455.123 511.386Z" fill="#EFEFEF"/>
<path d="M57.7522 116.21C57.7522 118.219 56.1222 119.849 54.1141 119.849C52.106 119.849 50.4795 118.219 50.4795 116.21C50.4795 114.202 52.106 112.571 54.1141 112.571C56.1222 112.571 57.7522 114.202 57.7522 116.21Z" fill="#EFEFEF"/>
<path d="M550.172 297.538C550.172 299.546 548.546 301.176 546.534 301.176C544.526 301.176 542.9 299.546 542.9 297.538C542.9 295.529 544.526 293.899 546.534 293.899C548.546 293.899 550.172 295.529 550.172 297.538Z" fill="#EFEFEF"/>
<path d="M381.292 147.265C381.292 149.274 379.662 150.904 377.654 150.904C375.646 150.904 374.02 149.274 374.02 147.265C374.02 145.257 375.646 143.627 377.654 143.627C379.662 143.627 381.292 145.257 381.292 147.265Z" fill="#EFEFEF"/>
<path d="M52.7898 607.406C52.7898 608.901 51.5807 610.11 50.0897 610.11C48.5988 610.11 47.3896 608.901 47.3896 607.406C47.3896 605.915 48.5988 604.706 50.0897 604.706C51.5807 604.706 52.7898 605.915 52.7898 607.406Z" fill="#EFEFEF"/>
<path d="M41.3703 610.701C42.533 611.635 42.7221 613.333 41.7911 614.496C40.8566 615.663 39.1588 615.848 37.9925 614.921C36.8297 613.986 36.6407 612.285 37.5752 611.122C38.5061 609.955 40.2039 609.766 41.3703 610.701Z" fill="#EFEFEF"/>
<path d="M546.534 587.295C546.534 589.3 544.908 590.934 542.896 590.934C540.888 590.934 539.261 589.3 539.261 587.295C539.261 585.287 540.888 583.657 542.896 583.657C544.908 583.657 546.534 585.287 546.534 587.295Z" fill="#EFEFEF"/>
<path d="M456.456 486.614C456.456 487.356 455.857 487.956 455.118 487.956C454.377 487.956 453.777 487.356 453.777 486.614C453.777 485.876 454.377 485.277 455.118 485.277C455.857 485.277 456.456 485.876 456.456 486.614Z" fill="#EFEFEF"/>
<path d="M531.992 576.928C531.992 577.756 531.321 578.43 530.49 578.43C529.659 578.43 528.989 577.756 528.989 576.928C528.989 576.1 529.659 575.426 530.49 575.426C531.321 575.426 531.992 576.1 531.992 576.928Z" fill="#EFEFEF"/>
<path d="M554.756 566.567C554.756 567.394 554.086 568.069 553.255 568.069C552.423 568.069 551.753 567.394 551.753 566.567C551.753 565.739 552.423 565.065 553.255 565.065C554.086 565.065 554.756 565.739 554.756 566.567Z" fill="#EFEFEF"/>
<path d="M31.067 604.709C31.067 605.537 30.3964 606.211 29.5653 606.211C28.7343 606.211 28.0637 605.537 28.0637 604.709C28.0637 603.881 28.7343 603.207 29.5653 603.207C30.3964 603.207 31.067 603.881 31.067 604.709Z" fill="#EFEFEF"/>
<path d="M140.981 256.168C142.148 257.099 142.333 258.801 141.402 259.964C140.468 261.13 138.77 261.316 137.607 260.385C136.441 259.454 136.252 257.752 137.186 256.589C138.117 255.423 139.819 255.234 140.981 256.168Z" fill="#EFEFEF"/>
<path d="M438.133 374.054C440.259 375.755 440.601 378.855 438.9 380.978C437.198 383.1 434.102 383.443 431.976 381.745C429.854 380.043 429.512 376.943 431.213 374.821C432.911 372.698 436.011 372.352 438.133 374.054Z" fill="#EFEFEF"/>
<path d="M553.255 76.9726C553.255 77.8002 552.584 78.4744 551.753 78.4744C550.922 78.4744 550.251 77.8002 550.251 76.9726C550.251 76.145 550.922 75.4707 551.753 75.4707C552.584 75.4707 553.255 76.145 553.255 76.9726Z" fill="#EFEFEF"/>
<path d="M449.602 62.4774C449.602 63.3086 448.932 63.9792 448.101 63.9792C447.27 63.9792 446.599 63.3086 446.599 62.4774C446.599 61.6498 447.27 60.9755 448.101 60.9755C448.932 60.9755 449.602 61.6498 449.602 62.4774Z" fill="#EFEFEF"/>
<path d="M146.732 242.851C146.732 243.679 146.062 244.353 145.231 244.353C144.403 244.353 143.729 243.679 143.729 242.851C143.729 242.02 144.403 241.349 145.231 241.349C146.062 241.349 146.732 242.02 146.732 242.851Z" fill="#EFEFEF"/>
<path d="M437.798 405.992C437.798 407.505 436.571 408.732 435.059 408.732C433.546 408.732 432.319 407.505 432.319 405.992C432.319 404.48 433.546 403.253 435.059 403.253C436.571 403.253 437.798 404.48 437.798 405.992Z" fill="#EFEFEF"/>
<path d="M76.807 102.378C76.807 103.206 76.1364 103.88 75.3053 103.88C74.4743 103.88 73.8037 103.206 73.8037 102.378C73.8037 101.551 74.4743 100.876 75.3053 100.876C76.1364 100.876 76.807 101.551 76.807 102.378Z" fill="#EFEFEF"/>
</g>
<defs>
<linearGradient id="paint0_linear" x1="48.7474" y1="963.425" x2="785.91" y2="-135.858" gradientUnits="userSpaceOnUse">
<stop stop-color="#292262"/>
<stop offset="0.0001" stop-color="#292262"/>
<stop offset="0.311821" stop-color="#023A93"/>
<stop offset="1" stop-color="#292262"/>
</linearGradient>
<linearGradient id="paint1_linear" x1="124.563" y1="610.919" x2="400.24" y2="490.165" gradientUnits="userSpaceOnUse">
<stop stop-color="#FF17D0"/>
<stop offset="1" stop-color="#FFD394"/>
</linearGradient>
<linearGradient id="paint2_linear" x1="505.394" y1="232.97" x2="651.332" y2="172.53" gradientUnits="userSpaceOnUse">
<stop stop-color="#9796FE"/>
<stop offset="0.992708" stop-color="#FF7DFF"/>
<stop offset="1" stop-color="#FF7DFF"/>
</linearGradient>
<linearGradient id="paint3_linear" x1="505.39" y1="232.989" x2="586.853" y2="199.251" gradientUnits="userSpaceOnUse">
<stop stop-color="#9796FE"/>
<stop offset="0.992708" stop-color="#FF7DFF"/>
<stop offset="1" stop-color="#FF7DFF"/>
</linearGradient>
<linearGradient id="paint4_linear" x1="522.959" y1="264.832" x2="662.809" y2="206.913" gradientUnits="userSpaceOnUse">
<stop stop-color="#9796FE"/>
<stop offset="0.992708" stop-color="#FF7DFF"/>
<stop offset="1" stop-color="#FF7DFF"/>
</linearGradient>
<linearGradient id="paint5_linear" x1="587.68" y1="255.896" x2="661.46" y2="225.339" gradientUnits="userSpaceOnUse">
<stop stop-color="#9796FE"/>
<stop offset="0.992708" stop-color="#FF7DFF"/>
<stop offset="1" stop-color="#FF7DFF"/>
</linearGradient>
<linearGradient id="paint6_linear" x1="504.961" y1="231.913" x2="650.358" y2="171.697" gradientUnits="userSpaceOnUse">
<stop stop-color="#9796FE"/>
<stop offset="0.992708" stop-color="#FF7DFF"/>
<stop offset="1" stop-color="#FF7DFF"/>
</linearGradient>
<linearGradient id="paint7_linear" x1="497.101" y1="189.929" x2="627.951" y2="135.738" gradientUnits="userSpaceOnUse">
<stop stop-color="#9796FE"/>
<stop offset="0.992708" stop-color="#FF7DFF"/>
<stop offset="1" stop-color="#FF7DFF"/>
</linearGradient>
<linearGradient id="paint8_linear" x1="135.628" y1="206.751" x2="317.623" y2="126.461" gradientUnits="userSpaceOnUse">
<stop stop-color="#ED1771"/>
<stop offset="0.304312" stop-color="#ED1771"/>
<stop offset="0.984155" stop-color="#FF9692"/>
<stop offset="0.989054" stop-color="#FF9692"/>
<stop offset="1" stop-color="#FF9692"/>
</linearGradient>
<linearGradient id="paint9_linear" x1="129.148" y1="218.196" x2="321.286" y2="104.38" gradientUnits="userSpaceOnUse">
<stop stop-color="#FF327E"/>
<stop offset="0.304312" stop-color="#FF327E"/>
<stop offset="0.984155" stop-color="#FFBF97"/>
<stop offset="0.989054" stop-color="#FFBF97"/>
<stop offset="1" stop-color="#FFBF97"/>
</linearGradient>
<linearGradient id="paint10_linear" x1="135.609" y1="206.727" x2="237.199" y2="161.909" gradientUnits="userSpaceOnUse">
<stop stop-color="#9796FE"/>
<stop offset="0.992708" stop-color="#FF7DFF"/>
<stop offset="1" stop-color="#FF7DFF"/>
</linearGradient>
<linearGradient id="paint11_linear" x1="75.2392" y1="212.026" x2="435.545" y2="103.929" gradientUnits="userSpaceOnUse">
<stop stop-color="#FF75A4"/>
<stop offset="1" stop-color="#FFE76F"/>
</linearGradient>
<linearGradient id="paint12_linear" x1="250.248" y1="1090.8" x2="125.3" y2="707.565" gradientUnits="userSpaceOnUse">
<stop stop-color="#E2BAE7"/>
<stop offset="0.0197136" stop-color="#E2BAE7"/>
<stop offset="1" stop-color="#EFEFEF"/>
</linearGradient>
<clipPath id="clip0">
<rect width="664" height="664" rx="332" fill="white"/>
</clipPath>
</defs>
</svg>
