<svg width="217" height="58" viewBox="0 0 217 58" fill="none" xmlns="http://www.w3.org/2000/svg">
<path d="M18.4836 26.6425C20.946 26.6097 23.3993 27.5963 25.6403 29.0917C29.1151 31.41 32.8154 33.1262 37.0199 33.6161C41.2259 34.106 45.0795 33.2446 48.5976 30.8221C50.2283 29.6993 51.9828 28.7198 53.7761 27.8717C54.955 27.3141 56.3047 27.4019 57.5314 27.9689C59.6459 28.9462 60.4117 31.2413 59.4004 33.4679C58.0032 36.5441 54.3951 38.1472 51.1492 37.0761C49.7896 36.6275 48.4391 36.122 47.145 35.5159C43.6529 33.8816 40.108 33.9918 36.5651 35.1879C33.1411 36.3442 29.7872 37.7034 26.3624 38.8568C22.9644 40.0008 19.4791 40.7216 15.8623 40.0351C13.0547 39.502 11.0389 37.4685 10.5065 34.7177C10.0023 32.1139 11.2045 29.3233 13.4658 27.849C14.7452 27.0147 16.2471 26.6294 18.4836 26.6425Z" fill="#02569C"/>
<path d="M42.1675 31.4688C39.722 31.3641 37.5914 30.4874 35.5206 29.3534C33.0917 28.0232 30.7276 26.4969 28.1553 25.5189C21.6545 23.0476 15.5215 23.9557 9.92618 28.1305C8.52669 29.1744 7.00747 30.031 5.26423 30.3281C3.1603 30.6866 1.19115 29.7514 0.371488 28.1334C-0.438761 26.5341 0.111321 24.2479 1.68137 22.691C3.88583 20.5053 6.83993 19.9904 9.98379 21.2443C11.5369 21.8638 13.0554 22.5938 14.6502 23.0789C17.863 24.0569 21.0502 23.6265 24.1771 22.5871C28.2603 21.2294 32.301 19.7317 36.431 18.5314C39.0353 17.7742 41.7597 17.3941 44.5018 18.1037C47.486 18.8758 49.4288 21.0637 49.5971 23.9125C49.7903 27.1804 48.1306 29.8225 45.131 30.8522C44.1848 31.1769 43.1577 31.2696 42.1675 31.4688Z" fill="#035591"/>
<path d="M26.0818 8.2608C29.2237 8.29542 32.0702 9.33038 34.8503 10.6419C37.5186 11.9006 40.1757 13.1943 42.902 14.3198C44.7243 15.0721 46.6994 15.0826 48.6565 14.8231C49.3388 14.7326 50.024 14.6596 50.7014 14.5424C52.8667 14.1671 54.643 14.8447 56.1182 16.4217C57.605 18.011 58.8193 19.7481 59.1905 21.9345C59.3524 22.8872 59.4191 23.8949 58.4616 24.5007C57.5124 25.1012 56.4653 24.8603 55.6897 24.2203C54.4597 23.2055 53.3125 22.0741 52.2417 20.8928C50.7247 19.219 49.3294 17.4425 47.3241 16.2731C44.9908 14.9124 42.4596 14.988 39.9049 15.1939C36.0201 15.5066 32.3431 16.6484 28.6902 17.9142C25.5531 19.0016 22.3999 20.0824 19.0034 19.9722C18.172 19.9454 17.3241 19.8553 16.5207 19.6513C13.995 19.0106 13.1249 16.9697 14.4397 14.7255C16.4115 11.3597 19.3486 9.28719 23.2293 8.58245C24.1683 8.41195 25.1303 8.36467 26.0818 8.2608Z" fill="#023A93"/>
<path d="M33.9758 49.7748C30.6772 49.7934 27.2864 48.2793 23.8831 46.6744C21.3571 45.4827 18.7471 44.393 16.0683 43.6172C14.5498 43.1775 12.8171 43.4593 11.1808 43.4236C11.0034 43.4199 10.8238 43.462 10.6469 43.4902C8.59642 43.8175 6.54369 43.9705 4.81061 42.5625C2.72889 40.8716 1.1675 38.8114 0.679171 36.106C0.51313 35.1857 0.628341 34.3294 1.4032 33.679C2.17956 33.0275 2.97626 33.3298 3.76504 33.6518C5.375 34.3097 6.5113 35.5289 7.53315 36.8535C9.08475 38.8642 10.732 40.7327 13.0257 41.9955C14.5878 42.8555 16.2234 43.1254 17.9455 43.1083C22.403 43.0632 26.6275 41.9024 30.8331 40.5548C33.5857 39.6728 36.3941 38.8877 39.236 38.3799C40.7699 38.1055 42.4695 38.314 44.0169 38.6505C45.8554 39.05 46.6028 40.5507 46.1043 42.3522C45.3682 45.014 43.4074 46.7057 41.1449 48.0671C39.1366 49.2756 36.9111 49.8359 33.9758 49.7748Z" fill="#023A93"/>
<path d="M38.1284 1.59009C42.6943 1.71927 46.5991 3.22182 49.3909 6.97781C50.2151 8.08611 50.7757 9.29678 50.1278 10.6958C49.479 12.0975 48.2659 12.625 46.7881 12.6876C44.0102 12.8056 41.482 11.8778 39.0226 10.7718C36.6303 9.69513 34.3505 8.35378 31.9141 7.39477C28.0748 5.88292 24.1286 5.28838 20.1109 6.91266C17.5939 7.93086 15.6086 9.66497 13.589 11.3883C11.7618 12.9474 9.8815 14.4555 7.93005 15.8579C7.23953 16.3546 6.29185 16.5846 5.4255 16.7395C3.96126 17.0012 3.16983 15.9998 3.74552 14.6357C4.6834 12.4132 6.40405 10.8864 8.479 9.71411C11.3002 8.11998 14.4128 7.36983 17.548 6.71349C22.3289 5.71316 27.0055 4.37441 31.6061 2.74492C33.6969 2.0037 35.8716 1.56328 38.1284 1.59009Z" fill="#0C0082"/>
<path d="M22.7615 56.5156C17.3296 56.3529 13.3645 54.7685 10.5019 50.9529C9.41684 49.5066 9.35095 48.1113 10.2365 46.8377C10.7885 46.0432 11.5837 45.6829 12.5118 45.5875C15.1936 45.3113 17.7885 45.7443 20.2242 46.8306C22.6481 47.9117 24.9727 49.2084 27.3786 50.332C29.4762 51.3118 31.704 51.9097 34.0248 52.0851C38.7146 52.4398 42.5117 50.5706 45.8208 47.4471C47.8747 45.5086 49.8664 43.4718 52.4271 42.1621C53.1545 41.7899 53.9843 41.5311 54.7953 41.4217C55.8785 41.275 56.4245 41.9153 56.2629 42.9897C55.9994 44.7458 54.8917 45.9639 53.5645 47.038C51.3371 48.8406 48.7245 49.8644 45.9925 50.5795C42.4639 51.5032 38.8836 52.2373 35.3651 53.1945C32.5696 53.955 29.8564 55.0094 27.0623 55.7755C25.4328 56.2223 23.7163 56.3585 22.7615 56.5156Z" fill="#0C0082"/>
<path d="M17.402 5.29883C16.8794 5.25118 16.4566 5.2482 16.0496 5.1689C14.963 4.95707 14.7058 4.24303 15.5168 3.49399C16.1414 2.91732 16.882 2.43856 17.6313 2.02234C19.693 0.876077 21.937 0.277069 24.2819 0.0414128C24.637 0.00567341 25.024 -0.0378842 25.352 0.0633774C25.803 0.202612 26.5218 0.427473 26.5662 0.704081C26.6333 1.1162 26.3366 1.7718 25.9781 2.03575C23.4073 3.92696 20.5071 5.0144 17.402 5.29883Z" fill="#292262"/>
<path d="M45.0322 53.5051C45.4659 54.3394 44.5442 54.8386 43.9177 55.2622C41.3371 57.006 36.3122 58.449 34.7742 57.8701C34.075 57.6069 33.8472 56.6717 34.3434 56.1181C34.38 56.0779 34.4184 56.0407 34.4602 56.0068C35.2162 55.3966 36.063 54.8594 36.9466 54.4488C38.8793 53.5505 44.7882 53.036 45.0322 53.5051Z" fill="#292262"/>
<path d="M85.5617 34.397C85.5617 35.7305 85.2304 36.9132 84.5678 37.9452C83.9055 38.9776 82.9409 39.7862 81.6743 40.3718C80.4077 40.957 78.8599 41.25 77.03 41.25C75.4235 41.25 73.9193 41.0006 72.5179 40.5021C71.1166 40.0036 69.9057 39.2732 68.8857 38.3104L70.3632 36.6407C71.184 37.4177 72.1399 38.0409 73.2307 38.5103C74.3214 38.9802 75.6287 39.2151 77.1531 39.2151C78.1852 39.2151 79.1645 39.0412 80.0911 38.6931C81.0173 38.3451 81.7737 37.8119 82.3603 37.0931C82.9465 36.3742 83.2398 35.458 83.2398 34.3448C83.2398 33.5098 83.0817 32.7995 82.765 32.2143C82.448 31.6286 81.8851 31.1071 81.076 30.6488C80.2669 30.1909 79.1294 29.7527 77.6633 29.3354C76.1622 28.9065 74.8252 28.4166 73.6527 27.8656C72.4799 27.315 71.5597 26.6192 70.891 25.7785C70.2227 24.9379 69.8884 23.8739 69.8884 22.5866C69.8884 21.4734 70.196 20.4709 70.812 19.5778C71.4276 18.6846 72.292 17.9777 73.4065 17.4557C74.5206 16.9338 75.8278 16.6728 77.3294 16.6728C78.9359 16.6728 80.3286 16.8992 81.5071 17.3511C82.6856 17.8034 83.7733 18.4531 84.7703 19.2993L83.2575 20.9344C82.378 20.1459 81.4307 19.5778 80.4164 19.2297C79.402 18.8819 78.373 18.7081 77.3294 18.7081C76.4028 18.7081 75.5466 18.8499 74.7608 19.134C73.9754 19.4184 73.3417 19.8447 72.8613 20.4128C72.3801 20.9809 72.1399 21.7057 72.1399 22.5866C72.1399 23.3289 72.3391 23.9696 72.7378 24.5087C73.1365 25.0481 73.8082 25.541 74.7521 25.9874C75.6961 26.4338 76.9717 26.8891 78.5782 27.3526C79.7507 27.6772 80.8708 28.0916 81.9378 28.596C83.0049 29.1005 83.8757 29.8082 84.5504 30.7184C85.2244 31.6286 85.5617 32.855 85.5617 34.397Z" fill="#23176B"/>
<path d="M100.305 19.0578V40.9043H98.0709V19.0578H90.2783V17.0054H108.133L107.887 19.0578H100.305Z" fill="#23176B"/>
<path d="M117.369 18.9847V27.7334H126.516V29.7687H117.369V38.9697H128.644V40.9004H115.117V17.0015H128.24L127.941 18.9847H117.369Z" fill="#23176B"/>
<path d="M137.245 40.9043V17.0054H139.497V38.7476H150.702L150.421 40.9043H137.245Z" fill="#02569C"/>
<path d="M160.711 18.9847V27.7334H169.858V29.7687H160.711V38.9697H171.986V40.9004H158.459V17.0015H171.582L171.283 18.9847H160.711Z" fill="#23176B"/>
<path d="M177.443 17.0054H180.134L185.939 26.6417L191.744 17.0054H194.207L187.223 28.0158L195.104 40.9043H192.413L185.869 29.5983L179.202 40.9043H176.757L184.567 28.1546L177.443 17.0054Z" fill="#23176B"/>
<path d="M208.75 31.6122V40.9004H206.463V31.6472L198.213 17.0015H200.711L207.66 29.4727L214.696 17.0015H217L208.75 31.6122Z" fill="#23176B"/>
</svg>
